<?xml version="1.0" standalone="no"?>
<!DOCTYPE svg PUBLIC "-//W3C//DTD SVG 20010904//EN"
 "http://www.w3.org/TR/2001/REC-SVG-20010904/DTD/svg10.dtd">
<svg version="1.0" xmlns="http://www.w3.org/2000/svg"
 width="897.000000pt" height="176.000000pt" viewBox="0 0 897.000000 176.000000"
 preserveAspectRatio="xMidYMid meet">
<metadata>
Created by potrace 1.16, written by Peter Selinger 2001-2019
</metadata>
<g transform="translate(0.000000,176.000000) scale(0.100000,-0.100000)"
fill="#000000" stroke="none">
<path d="M180 900 l0 -640 135 0 135 0 0 269 c0 149 4 272 9 275 4 3 115 -118
246 -269 l238 -275 196 0 195 0 -30 33 c-158 169 -565 640 -561 650 3 7 113
139 246 295 132 156 243 288 247 293 3 5 -63 9 -163 9 l-168 0 -218 -260
c-121 -143 -223 -260 -228 -260 -5 0 -9 111 -9 260 l0 260 -135 0 -135 0 0
-640z"/>
<path d="M3610 1528 c0 -7 81 -294 179 -638 l178 -625 156 -3 156 -3 19 63
c10 35 56 197 103 360 46 164 88 297 93 295 5 -2 55 -164 110 -360 l101 -357
156 0 156 0 178 628 c98 345 180 633 183 640 3 9 -31 12 -151 12 l-155 0 -107
-432 c-100 -401 -117 -460 -129 -447 -4 3 -111 403 -227 842 l-10 38 -106 -3
-107 -3 -115 -437 c-64 -241 -121 -438 -126 -438 -6 0 -60 198 -120 440 l-110
440 -152 0 c-116 0 -153 -3 -153 -12z"/>
<path d="M2823 1431 c-88 -35 -144 -75 -200 -144 -56 -68 -84 -143 -91 -241
-9 -143 38 -267 133 -354 77 -70 79 -78 85 -242 l5 -145 220 0 220 0 5 146 c6
162 1 151 93 243 135 134 173 342 93 512 -96 203 -356 307 -563 225z m339 -39
c119 -59 218 -192 239 -321 21 -132 -32 -270 -146 -379 -57 -55 -64 -66 -72
-114 -8 -51 -9 -53 -42 -56 l-33 -3 6 73 c3 40 9 124 12 187 6 99 9 114 25
118 36 10 18 23 -30 23 -45 0 -51 3 -63 28 -12 25 -18 27 -80 30 -64 3 -67 2
-80 -25 -11 -24 -20 -28 -61 -31 -26 -2 -47 -7 -47 -13 0 -5 6 -9 14 -9 17 0
23 -43 32 -232 l7 -148 -30 0 c-29 0 -31 3 -42 58 -10 51 -18 64 -66 109 -168
158 -202 359 -92 539 52 85 135 154 220 183 51 18 79 21 164 18 90 -3 109 -7
165 -35z m-66 -619 c-3 -71 -9 -156 -12 -190 l-6 -63 -104 0 -104 0 0 53 c-1
28 -5 111 -9 182 -5 72 -7 133 -4 138 2 4 59 7 125 7 l121 0 -7 -127z m68
-279 c20 -8 21 -47 2 -63 -9 -8 -70 -11 -197 -9 -184 3 -184 3 -187 26 -8 51
-6 52 187 52 99 0 186 -3 195 -6z m11 -129 l0 -30 -197 -3 -198 -2 0 35 0 35
198 -2 197 -3 0 -30z"/>
<path d="M7350 1205 l0 -145 -55 0 -55 0 0 -105 0 -105 54 0 54 0 3 -203 4
-202 33 -68 c51 -104 135 -146 265 -134 70 7 157 34 157 49 0 5 -14 54 -31
108 l-30 99 -30 -11 c-38 -13 -75 -3 -91 25 -8 14 -14 79 -16 180 l-4 157 86
0 86 0 0 105 0 105 -85 0 -85 0 0 145 0 145 -130 0 -130 0 0 -145z"/>
<path d="M1840 1071 c-44 -14 -94 -43 -130 -74 l-35 -31 -3 47 -3 47 -130 0
-129 0 0 -400 0 -400 130 0 130 0 0 248 0 249 29 40 c74 102 223 97 271 -10
18 -38 20 -67 20 -284 l0 -243 131 0 130 0 -3 307 c-3 296 -4 310 -25 349 -30
56 -94 109 -162 135 -61 22 -181 34 -221 20z"/>
<path d="M5699 1066 c-192 -52 -315 -260 -282 -477 22 -142 108 -260 231 -317
49 -23 70 -27 152 -27 84 0 101 3 150 28 30 16 66 39 81 53 14 13 28 24 32 24
4 0 7 -20 7 -45 l0 -45 130 0 130 0 0 400 0 400 -130 0 -130 0 0 -40 c0 -22
-3 -40 -6 -40 -3 0 -22 14 -43 31 -75 60 -215 84 -322 55z m264 -230 c62 -25
117 -111 117 -182 0 -30 -20 -85 -44 -117 -63 -86 -237 -88 -304 -3 -50 64
-54 167 -8 236 46 69 158 100 239 66z"/>
<path d="M6765 1070 c-151 -33 -229 -117 -228 -245 1 -104 48 -161 182 -222
144 -65 146 -66 149 -96 8 -72 -84 -90 -194 -38 -34 16 -65 34 -68 40 -13 21
-24 10 -76 -76 l-52 -87 29 -23 c67 -54 203 -88 323 -80 207 14 309 92 318
243 9 142 -57 216 -247 279 -112 37 -144 70 -105 109 22 23 130 21 199 -3 l55
-20 40 79 c22 44 40 84 40 88 0 5 -30 19 -67 32 -75 24 -230 35 -298 20z"/>
<path d="M8190 1067 c-125 -36 -230 -123 -283 -234 -41 -87 -50 -209 -21 -300
35 -110 144 -221 264 -267 103 -40 273 -29 386 24 55 27 164 124 164 147 0 5
-42 29 -93 54 l-92 47 -38 -33 c-119 -103 -337 -40 -337 97 l0 28 291 0 292 0
-6 78 c-11 166 -98 287 -245 343 -71 26 -217 35 -282 16z m183 -171 c42 -17
87 -70 87 -102 l0 -24 -155 0 -155 0 0 25 c0 32 54 93 94 104 46 14 93 13 129
-3z"/>
</g>
</svg>
