<!-- <?xml version="1.0" standalone="no"?>
<!DOCTYPE svg PUBLIC "-//W3C//DTD SVG 20010904//EN"
 "http://www.w3.org/TR/2001/REC-SVG-20010904/DTD/svg10.dtd"> -->
<svg version="1.0" xmlns="http://www.w3.org/2000/svg"
 width="436.000000pt" height="285.000000pt" viewBox="0 0 436.000000 285.000000"
 preserveAspectRatio="xMidYMid meet">
<metadata>
Created by potrace 1.16, written by Peter Selinger 2001-2019
</metadata>
<g transform="translate(0.000000,285.000000) scale(0.100000,-0.100000)"
fill="#000000" stroke="none">
<path d="M2117 2598 c-34 -12 -40 -36 -35 -138 3 -87 11 -100 59 -100 46 0 59
27 59 121 0 46 -4 89 -8 95 -14 22 -46 31 -75 22z"/>
<path d="M1516 2434 c-24 -23 -19 -57 14 -116 17 -29 34 -60 39 -68 4 -8 19
-21 33 -29 23 -13 29 -13 52 2 34 23 34 57 0 116 -63 109 -99 134 -138 95z"/>
<path d="M2694 2442 c-6 -4 -29 -39 -52 -78 -52 -87 -55 -126 -12 -144 25 -10
34 -10 52 2 26 17 98 146 98 176 0 37 -55 65 -86 44z"/>
<path d="M1960 2242 c-301 -71 -526 -269 -635 -562 -25 -69 -28 -89 -32 -240
-4 -178 3 -220 53 -349 38 -94 122 -217 196 -284 121 -111 125 -117 142 -176
13 -45 16 -107 16 -289 l0 -232 24 -15 c20 -14 76 -15 429 -13 223 2 409 7
414 11 4 5 10 124 13 265 7 308 8 312 120 412 80 71 180 199 212 270 43 95 47
107 58 150 47 183 34 372 -38 547 -41 100 -84 166 -167 251 -115 120 -211 181
-367 232 -122 40 -319 50 -438 22z m335 -94 c110 -24 265 -102 350 -176 42
-36 133 -150 163 -203 66 -117 97 -255 88 -393 -7 -111 -24 -180 -68 -276 -46
-101 -91 -156 -252 -309 -25 -24 -46 -50 -46 -57 0 -8 -4 -14 -8 -14 -10 0
-42 -119 -42 -158 0 -28 -2 -29 -37 -25 -21 2 -39 6 -42 8 -2 3 1 69 7 147 5
79 13 197 16 263 4 66 8 129 11 140 2 11 4 37 4 59 1 37 2 38 31 34 29 -4 30
-4 30 39 l0 43 -87 1 c-49 1 -93 1 -99 0 -7 -1 -9 9 -6 24 2 14 0 25 -6 25 -6
0 -13 9 -17 19 -9 28 -29 33 -140 32 -128 -2 -137 -5 -160 -49 -11 -20 -24
-40 -30 -45 -5 -4 -44 -7 -86 -6 -42 1 -80 -1 -85 -4 -6 -3 -8 -24 -6 -47 3
-32 8 -40 21 -36 38 12 45 -8 52 -156 4 -79 10 -168 13 -198 3 -30 8 -107 12
-171 l6 -116 -31 -5 c-41 -6 -47 0 -56 52 -12 81 -28 124 -63 173 -18 26 -37
47 -41 47 -14 0 -95 77 -141 135 -59 74 -123 199 -145 285 -23 91 -28 239 -10
325 32 152 95 265 216 387 74 75 99 93 191 137 58 28 120 53 139 56 19 3 50
10 69 15 43 11 231 9 285 -2z m57 -968 c7 0 9 -27 5 -82 -4 -46 -11 -162 -17
-258 -5 -96 -13 -203 -16 -237 l-6 -63 -178 0 -178 0 -8 98 c-4 53 -7 144 -8
202 -1 58 -4 107 -7 110 -3 3 -9 56 -13 117 l-6 113 197 2 c109 2 204 2 211 1
8 -2 18 -3 24 -3z m109 -748 c11 -1 18 -14 21 -37 l4 -35 -343 0 -343 0 0 38
0 38 323 -1 c177 -1 329 -3 338 -3z m19 -212 l0 -40 -337 2 -338 3 -3 38 -3
37 340 0 341 0 0 -40z"/>
<path d="M2025 1100 c-4 -6 -18 -10 -31 -7 l-24 4 5 -115 c3 -63 7 -118 10
-122 2 -3 5 -40 5 -81 1 -41 5 -93 7 -116 5 -41 7 -43 40 -43 l34 0 -3 168
c-2 92 -8 173 -12 180 -4 7 -2 12 3 12 11 0 10 35 -2 46 -4 4 -7 19 -7 33 0
34 -15 58 -25 41z"/>
<path d="M2100 858 l0 -238 34 0 34 0 6 218 c4 119 9 226 11 237 4 18 -1 20
-40 20 l-45 0 0 -237z"/>
<path d="M2229 1023 c-1 -38 -3 -79 -4 -93 -2 -14 -6 -89 -10 -167 l-8 -143
35 0 35 0 12 173 c6 94 14 200 18 235 l6 62 -42 0 -41 0 -1 -67z"/>
<path d="M1086 2004 c-9 -8 -16 -27 -16 -42 0 -22 11 -34 58 -64 31 -20 73
-44 93 -54 35 -16 38 -16 63 2 52 38 30 78 -78 140 -64 37 -96 42 -120 18z"/>
<path d="M3076 1985 c-32 -19 -62 -35 -67 -35 -12 0 -29 -35 -29 -58 0 -22 30
-52 52 -52 25 0 173 95 176 113 5 27 -25 67 -51 67 -13 0 -49 -16 -81 -35z"/>
<path d="M949 1434 c-26 -8 -41 -50 -27 -79 14 -30 45 -37 153 -33 76 3 80 4
93 31 11 22 11 32 0 55 -13 26 -15 27 -108 29 -52 0 -102 -1 -111 -3z"/>
<path d="M3132 1424 c-23 -16 -29 -57 -12 -84 12 -20 168 -27 210 -10 41 17
44 62 8 93 -27 23 -173 25 -206 1z"/>
</g>
</svg>
